<?xml version="1.0" standalone="no"?>
<!DOCTYPE svg PUBLIC "-//W3C//DTD SVG 20010904//EN"
 "http://www.w3.org/TR/2001/REC-SVG-20010904/DTD/svg10.dtd">
<svg version="1.0" xmlns="http://www.w3.org/2000/svg"
 width="150.000000pt" height="150.000000pt" viewBox="0 0 150.000000 150.000000"
 preserveAspectRatio="xMidYMid meet">
<metadata>
Created by potrace 1.11, written by Peter Selinger 2001-2013
</metadata>
<g transform="translate(0.000000,150.000000) scale(0.100000,-0.100000)"
fill="#000000" stroke="none">
<path d="M590 1426 c-158 -46 -245 -177 -209 -317 7 -30 5 -44 -15 -81 -13
-25 -27 -59 -31 -76 -5 -26 -12 -32 -41 -38 -73 -14 -124 -81 -124 -163 0
-203 252 -534 506 -667 72 -37 89 -37 159 0 206 108 416 362 481 581 23 78 24
248 1 323 -44 144 -150 286 -266 357 -107 64 -183 87 -306 91 -72 2 -126 -1
-155 -10z m265 -51 c245 -63 422 -278 430 -523 3 -109 -16 -194 -64 -289 -91
-182 -252 -352 -406 -431 -56 -29 -61 -30 -95 -16 -60 25 -138 82 -222 162
-159 151 -267 328 -276 453 -4 62 -3 68 24 97 16 17 39 33 52 37 18 5 22 2 23
-17 2 -63 40 -141 120 -248 104 -137 241 -250 308 -252 114 -3 380 321 399
487 5 50 -12 133 -41 190 -68 137 -206 224 -361 227 -93 2 -168 -21 -252 -77
-37 -25 -68 -45 -70 -45 -1 0 -1 21 0 48 5 89 59 157 150 191 65 24 200 27
281 6z m-15 -187 c143 -44 244 -165 257 -305 5 -50 1 -67 -26 -127 -59 -130
-208 -312 -285 -347 -39 -17 -41 -17 -80 3 -49 25 -175 149 -235 231 -24 32
-56 86 -73 120 -27 53 -30 68 -25 117 7 62 34 137 46 124 43 -52 58 -82 54
-109 -13 -85 109 -121 142 -42 24 58 -10 107 -75 107 -25 0 -35 8 -60 47 -17
26 -30 51 -30 57 0 13 57 63 105 91 82 49 195 61 285 33z m-270 -303 c0 -18
-5 -25 -19 -25 -11 0 -23 5 -26 10 -11 18 3 40 25 40 15 0 20 -7 20 -25z"/>
<path d="M688 713 c-26 -7 -22 -36 8 -67 39 -38 65 -38 107 2 50 48 29 73 -58
71 -22 -1 -48 -3 -57 -6z"/>
</g>
</svg>
