<?xml version="1.0" encoding="UTF-8" standalone="no"?>
<svg width="1220px" height="200px" viewBox="0 0 1220 200" version="1.1" xmlns="http://www.w3.org/2000/svg" xmlns:xlink="http://www.w3.org/1999/xlink">
    <!-- Generator: Sketch 46 (44423) - http://www.bohemiancoding.com/sketch -->
    <title>logotype_colour</title>
    <desc>Created with Sketch.</desc>
    <defs></defs>
    <g id="Page-2" stroke="none" stroke-width="1" fill="none" fill-rule="evenodd">
        <g id="logotype_colour">
            <g id="logo" transform="translate(40.000000, 7.000000)">
                <path d="M29.1913668,66.8249713 C27.900296,70.6262728 27.2608696,75.2890312 27.2608696,80.0909992 C27.2608696,82.7915623 28.2824452,86.520194 30.1849643,90.1750124 C39.3774923,110.765999 68.1481013,140.331509 78.2338865,140.331509 C90.5975941,140.331509 124.73913,96.3373493 124.73913,79.8574059 C124.73913,53.5857615 102.952022,32.2608696 76.0402181,32.2608696 C54.229582,32.2608696 35.1617911,46.5847143 29.1913668,66.8249713 Z M76.0402181,25.7391304 C106.52295,25.7391304 131.26087,49.9522324 131.26087,79.8574059 C131.26087,89.2320975 123.020845,105.137572 111.139481,120.447681 C98.9479242,136.157498 86.447181,146.853249 78.2338865,146.853249 C64.8601405,146.853249 34.4418595,115.612645 24.354361,93.0982468 C22.0214759,88.5878297 20.7391304,83.8828841 20.7391304,80.0909992 C20.7391304,74.6495857 21.4664191,69.3196851 22.9549533,64.9160149 C29.7627462,41.9423154 51.3551205,25.7391304 76.0402181,25.7391304 Z" id="face" fill="#165C96" fill-rule="nonzero"></path>
                <path d="M51,85.2608696 C45.3330782,85.2608696 40.7391304,80.6669218 40.7391304,75 C40.7391304,69.3330782 45.3330782,64.7391304 51,64.7391304 C56.6669218,64.7391304 61.2608696,69.3330782 61.2608696,75 C61.2608696,80.6669218 56.6669218,85.2608696 51,85.2608696 Z M51,78.7391304 C53.0650647,78.7391304 54.7391304,77.0650647 54.7391304,75 C54.7391304,72.9349353 53.0650647,71.2608696 51,71.2608696 C48.9349353,71.2608696 47.2608696,72.9349353 47.2608696,75 C47.2608696,77.0650647 48.9349353,78.7391304 51,78.7391304 Z" id="stetho-oval" fill="#FE7B00" fill-rule="nonzero"></path>
                <path d="M29.4547296,140.357621 C13.3092939,120.447767 4.7174234,100.544456 7.31475874,87.1295011 C9.57505564,81.1950032 15.442626,76.7844141 20.8262568,77.3502684 C20.9330077,75.8895955 21.0243151,74.7943557 21.1001789,74.0645492 C21.1747695,73.3469904 21.3091437,72.2711821 21.5033014,70.8371244 C12.7456915,69.9166431 4.24455553,76.4915299 1.10351435,85.1213076 C-2.26662725,101.406613 7.03272698,123.062104 24.3892189,144.46538 C40.4425615,164.261669 60.9556578,180.604677 76.9771944,185.897078 L77.9098885,186.205175 L78.8575753,185.94685 C110.481764,177.326566 152.073901,128.509642 155.491032,94.5610355 C155.823955,91.253502 156.26087,84.4001077 156.26087,82.023237 C156.26087,56.509001 144.135383,32.9106499 123.883772,17.6037485 C109.502352,6.73375038 91.9003128,0.739130435 73.4061247,0.739130435 C27.9265246,0.739130435 13.0661716,40.4895304 43.8611295,71.7083531 L48.5041071,67.1284143 C35.870479,54.3208957 31.4726119,39.2839734 35.9610313,27.2777669 C40.5579442,14.9813478 53.8811002,7.26086957 73.4061247,7.26086957 C90.4701422,7.26086957 106.693919,12.7861031 119.951322,22.8065286 C138.596249,36.8990396 149.73913,58.5850671 149.73913,82.023237 C149.73913,84.1463462 149.31502,90.7988966 149.002082,93.9078837 C145.890285,124.823056 107.024799,170.735021 78.0894221,179.38401 C63.5389954,174.202835 44.4665031,158.869492 29.4547296,140.357621 Z" id="stethoscope" fill="#FE7B00" fill-rule="nonzero"></path>
                <path d="M88.9478661,99.9127098 C89.7474948,103.796323 81.1360014,111 77.7014082,111 C74.2668149,111 65.9428232,103.796323 67.1115293,99.9127098 C68.2802353,96.0290967 88.1482375,96.0290967 88.9478661,99.9127098 Z" id="nose" fill="#165C96"></path>
            </g>
            <text id="ROAMING" font-family="Montserrat-ExtraBold, Montserrat" font-size="80" font-weight="600" fill="#165C96">
                <tspan x="227" y="126">ROAMING</tspan>
            </text>
            <text id="HEALTHCARE" font-family="Montserrat-Light, Montserrat" font-size="80" font-weight="300" fill="#165C96">
                <tspan x="634" y="126">HEALTHCARE</tspan>
            </text>
        </g>
    </g>
</svg>